<?xml version="1.0" encoding="UTF-8"?>
<svg xmlns="http://www.w3.org/2000/svg" xmlns:xlink="http://www.w3.org/1999/xlink" width="30pt" height="30.000001pt" viewBox="0 0 30 30.000001" version="1.2">
<defs>
<clipPath id="clip1">
  <path d="M 3 13 L 27 13 L 27 24.363281 L 3 24.363281 Z M 3 13 "/>
</clipPath>
<clipPath id="clip2">
  <path d="M 1.132812 8 L 14 8 L 14 13 L 1.132812 13 Z M 1.132812 8 "/>
</clipPath>
<clipPath id="clip3">
  <path d="M 15 1.886719 L 24 1.886719 L 24 11 L 15 11 Z M 15 1.886719 "/>
</clipPath>
<clipPath id="clip4">
  <path d="M 18 8 L 28.566406 8 L 28.566406 13 L 18 13 Z M 18 8 "/>
</clipPath>
</defs>
<g id="surface1">
<path style=" stroke:none;fill-rule:nonzero;fill:rgb(0%,0%,0%);fill-opacity:1;" d="M 6.714844 16.375 L 6.714844 19.398438 C 6.714844 19.636719 6.910156 19.832031 7.144531 19.832031 C 7.378906 19.832031 7.574219 19.636719 7.574219 19.398438 L 7.574219 16.375 C 7.574219 16.136719 7.378906 15.945312 7.144531 15.945312 C 6.910156 15.945312 6.714844 16.136719 6.714844 16.375 Z M 6.714844 16.375 "/>
<path style=" stroke:none;fill-rule:nonzero;fill:rgb(0%,0%,0%);fill-opacity:1;" d="M 9.285156 16.375 L 9.285156 19.398438 C 9.285156 19.636719 9.476562 19.832031 9.714844 19.832031 C 9.949219 19.832031 10.140625 19.636719 10.140625 19.398438 L 10.140625 16.375 C 10.140625 16.136719 9.949219 15.945312 9.714844 15.945312 C 9.476562 15.945312 9.285156 16.136719 9.285156 16.375 Z M 9.285156 16.375 "/>
<path style=" stroke:none;fill-rule:nonzero;fill:rgb(0%,0%,0%);fill-opacity:1;" d="M 11.855469 16.375 L 11.855469 19.398438 C 11.855469 19.636719 12.046875 19.832031 12.28125 19.832031 C 12.515625 19.832031 12.710938 19.636719 12.710938 19.398438 L 12.710938 16.375 C 12.710938 16.136719 12.515625 15.945312 12.28125 15.945312 C 12.046875 15.945312 11.855469 16.136719 11.855469 16.375 Z M 11.855469 16.375 "/>
<path style=" stroke:none;fill-rule:nonzero;fill:rgb(0%,0%,0%);fill-opacity:1;" d="M 14.421875 16.375 L 14.421875 19.398438 C 14.421875 19.636719 14.613281 19.832031 14.851562 19.832031 C 15.085938 19.832031 15.277344 19.636719 15.277344 19.398438 L 15.277344 16.375 C 15.277344 16.136719 15.085938 15.945312 14.851562 15.945312 C 14.613281 15.945312 14.421875 16.136719 14.421875 16.375 Z M 14.421875 16.375 "/>
<path style=" stroke:none;fill-rule:nonzero;fill:rgb(0%,0%,0%);fill-opacity:1;" d="M 17.417969 19.832031 C 17.65625 19.832031 17.847656 19.636719 17.847656 19.398438 L 17.847656 16.375 C 17.847656 16.136719 17.65625 15.945312 17.417969 15.945312 C 17.183594 15.945312 16.992188 16.136719 16.992188 16.375 L 16.992188 19.398438 C 16.992188 19.636719 17.183594 19.832031 17.417969 19.832031 Z M 17.417969 19.832031 "/>
<path style=" stroke:none;fill-rule:nonzero;fill:rgb(0%,0%,0%);fill-opacity:1;" d="M 22.984375 19.398438 L 22.984375 16.375 C 22.984375 16.136719 22.792969 15.945312 22.558594 15.945312 C 22.320312 15.945312 22.128906 16.136719 22.128906 16.375 L 22.128906 19.398438 C 22.128906 19.636719 22.320312 19.832031 22.558594 19.832031 C 22.792969 19.832031 22.984375 19.636719 22.984375 19.398438 Z M 22.984375 19.398438 "/>
<path style=" stroke:none;fill-rule:nonzero;fill:rgb(0%,0%,0%);fill-opacity:1;" d="M 20.203125 19.398438 L 20.203125 16.375 C 20.203125 16.136719 20.007812 15.945312 19.773438 15.945312 C 19.539062 15.945312 19.347656 16.136719 19.347656 16.375 L 19.347656 19.398438 C 19.347656 19.636719 19.539062 19.832031 19.773438 19.832031 C 20.007812 19.832031 20.203125 19.636719 20.203125 19.398438 Z M 20.203125 19.398438 "/>
<g clip-path="url(#clip1)" clip-rule="nonzero">
<path style=" stroke:none;fill-rule:nonzero;fill:rgb(0%,0%,0%);fill-opacity:1;" d="M 23.796875 21.773438 L 5.902344 21.773438 L 3.933594 13.351562 L 3.035156 13.351562 L 5.347656 23.261719 C 5.433594 23.890625 5.988281 24.363281 6.609375 24.363281 L 23.050781 24.363281 C 23.691406 24.363281 24.226562 23.890625 24.3125 23.261719 L 26.667969 13.351562 L 25.789062 13.351562 Z M 23.5 23.132812 C 23.476562 23.351562 23.285156 23.5 23.070312 23.5 L 6.628906 23.5 C 6.417969 23.5 6.222656 23.328125 6.203125 23.132812 L 6.09375 22.636719 L 23.605469 22.636719 Z M 23.5 23.132812 "/>
</g>
<path style=" stroke:none;fill-rule:nonzero;fill:rgb(0%,0%,0%);fill-opacity:1;" d="M 22.984375 7.046875 C 22.835938 7.261719 22.726562 7.5 22.621094 7.738281 L 23.5625 7.738281 C 23.605469 7.652344 23.648438 7.585938 23.691406 7.5 C 24.417969 6.3125 25.703125 5.644531 26.386719 5.363281 C 26.429688 5.902344 26.429688 6.808594 26.109375 7.738281 L 27.007812 7.738281 C 27.265625 6.789062 27.289062 5.882812 27.246094 5.320312 C 27.222656 5.039062 27.074219 4.78125 26.839844 4.628906 C 26.601562 4.476562 26.324219 4.457031 26.066406 4.566406 C 25.273438 4.910156 23.839844 5.664062 22.984375 7.046875 Z M 22.984375 7.046875 "/>
<path style=" stroke:none;fill-rule:nonzero;fill:rgb(0%,0%,0%);fill-opacity:1;" d="M 17.417969 11.625 C 17.417969 10.199219 16.261719 9.035156 14.851562 9.035156 C 13.4375 9.035156 12.28125 10.199219 12.28125 11.625 C 12.28125 13.050781 13.4375 14.214844 14.851562 14.214844 C 16.261719 14.214844 17.417969 13.050781 17.417969 11.625 Z M 14.851562 13.351562 C 13.910156 13.351562 13.136719 12.574219 13.136719 11.625 C 13.136719 10.675781 13.910156 9.898438 14.851562 9.898438 C 15.792969 9.898438 16.5625 10.675781 16.5625 11.625 C 16.5625 12.574219 15.792969 13.351562 14.851562 13.351562 Z M 14.851562 13.351562 "/>
<path style=" stroke:none;fill-rule:nonzero;fill:rgb(0%,0%,0%);fill-opacity:1;" d="M 15.277344 11.625 C 15.277344 11.746094 15.238281 11.847656 15.152344 11.929688 C 15.070312 12.015625 14.96875 12.058594 14.851562 12.058594 C 14.730469 12.058594 14.632812 12.015625 14.546875 11.929688 C 14.464844 11.847656 14.421875 11.746094 14.421875 11.625 C 14.421875 11.507812 14.464844 11.402344 14.546875 11.320312 C 14.632812 11.234375 14.730469 11.191406 14.851562 11.191406 C 14.96875 11.191406 15.070312 11.234375 15.152344 11.320312 C 15.238281 11.402344 15.277344 11.507812 15.277344 11.625 Z M 15.277344 11.625 "/>
<path style=" stroke:none;fill-rule:nonzero;fill:rgb(0%,0%,0%);fill-opacity:1;" d="M 9.242188 7.738281 C 9.5625 6.984375 10.332031 6.441406 11.210938 6.441406 C 12.089844 6.441406 12.839844 6.984375 13.179688 7.738281 L 14.101562 7.738281 C 13.738281 6.484375 12.582031 5.578125 11.234375 5.578125 C 9.882812 5.578125 8.726562 6.484375 8.363281 7.738281 Z M 9.242188 7.738281 "/>
<path style=" stroke:none;fill-rule:nonzero;fill:rgb(0%,0%,0%);fill-opacity:1;" d="M 4.296875 6.765625 C 4.597656 6.574219 5.132812 6.53125 5.453125 6.679688 C 5.644531 6.789062 5.882812 6.832031 6.09375 6.851562 C 6.375 6.875 6.628906 6.808594 6.910156 6.679688 C 7.164062 6.550781 7.550781 6.550781 7.871094 6.660156 C 8.023438 6.398438 8.191406 6.164062 8.386719 5.945312 C 7.871094 5.6875 7.1875 5.644531 6.652344 5.859375 C 6.609375 5.277344 6.265625 4.910156 6.007812 4.78125 C 5.796875 4.671875 5.539062 4.738281 5.433594 4.953125 C 5.324219 5.167969 5.390625 5.429688 5.601562 5.535156 C 5.601562 5.535156 5.753906 5.644531 5.796875 5.902344 C 5.21875 5.644531 4.382812 5.6875 3.828125 6.03125 C 3.3125 6.355469 2.949219 6.941406 2.820312 7.652344 C 2.820312 7.671875 2.820312 7.71875 2.800781 7.738281 L 3.675781 7.738281 C 3.761719 7.457031 3.910156 7.003906 4.296875 6.765625 Z M 4.296875 6.765625 "/>
<path style=" stroke:none;fill-rule:nonzero;fill:rgb(0%,0%,0%);fill-opacity:1;" d="M 12.710938 4.023438 L 16.992188 4.023438 L 16.992188 5.363281 L 17.847656 4.433594 L 17.847656 3.832031 C 17.847656 3.484375 17.570312 3.226562 17.207031 3.226562 L 12.496094 3.226562 C 12.132812 3.226562 11.855469 3.507812 11.855469 3.832031 L 11.855469 4.910156 C 12.152344 4.953125 12.429688 5.039062 12.710938 5.148438 Z M 12.710938 4.023438 "/>
<g clip-path="url(#clip2)" clip-rule="nonzero">
<path style=" stroke:none;fill-rule:nonzero;fill:rgb(0%,0%,0%);fill-opacity:1;" d="M 11.425781 11.625 L 2.433594 11.625 C 2.199219 11.625 2.007812 11.429688 2.007812 11.191406 L 2.007812 9.898438 C 2.007812 9.660156 2.199219 9.464844 2.433594 9.464844 L 12.175781 9.464844 C 12.453125 9.121094 12.796875 8.816406 13.179688 8.601562 L 2.433594 8.601562 C 1.730469 8.601562 1.152344 9.183594 1.152344 9.898438 L 1.152344 11.191406 C 1.152344 11.90625 1.730469 12.488281 2.433594 12.488281 L 11.53125 12.488281 C 11.46875 12.207031 11.425781 11.925781 11.425781 11.625 Z M 11.425781 11.625 "/>
</g>
<g clip-path="url(#clip3)" clip-rule="nonzero">
<path style=" stroke:none;fill-rule:nonzero;fill:rgb(0%,0%,0%);fill-opacity:1;" d="M 16.414062 8.558594 L 21.316406 2.921875 C 21.378906 2.835938 21.488281 2.792969 21.59375 2.773438 C 21.59375 2.773438 21.613281 2.773438 21.613281 2.773438 C 21.722656 2.773438 21.808594 2.816406 21.894531 2.878906 L 22.835938 3.722656 C 23.007812 3.875 23.027344 4.132812 22.878906 4.304688 L 17.890625 10.050781 C 18.039062 10.351562 18.148438 10.652344 18.210938 11 L 23.519531 4.886719 C 23.992188 4.347656 23.925781 3.550781 23.414062 3.074219 L 22.472656 2.234375 C 22.214844 2.015625 21.894531 1.886719 21.550781 1.910156 C 21.207031 1.929688 20.910156 2.082031 20.671875 2.339844 L 15.558594 8.234375 C 15.855469 8.300781 16.15625 8.40625 16.414062 8.558594 Z M 16.414062 8.558594 "/>
</g>
<g clip-path="url(#clip4)" clip-rule="nonzero">
<path style=" stroke:none;fill-rule:nonzero;fill:rgb(0%,0%,0%);fill-opacity:1;" d="M 27.265625 8.601562 L 21.421875 8.601562 L 20.671875 9.464844 L 27.265625 9.464844 C 27.5 9.464844 27.695312 9.660156 27.695312 9.898438 L 27.695312 11.191406 C 27.695312 11.429688 27.5 11.625 27.265625 11.625 L 18.8125 11.625 L 18.210938 12.316406 C 18.191406 12.378906 18.191406 12.425781 18.167969 12.488281 L 27.265625 12.488281 C 27.972656 12.488281 28.550781 11.90625 28.550781 11.191406 L 28.550781 9.898438 C 28.550781 9.183594 27.972656 8.601562 27.265625 8.601562 Z M 27.265625 8.601562 "/>
</g>
</g>
</svg>
