<?xml version="1.0" encoding="UTF-8"?>
<svg xmlns="http://www.w3.org/2000/svg" xmlns:xlink="http://www.w3.org/1999/xlink" width="30pt" height="30.000001pt" viewBox="0 0 30 30.000001" version="1.2">
<defs>
<clipPath id="clip1">
  <path d="M 5.4375 1.351562 L 24.0625 1.351562 L 24.0625 27.289062 L 5.4375 27.289062 Z M 5.4375 1.351562 "/>
</clipPath>
</defs>
<g id="surface1">
<g clip-path="url(#clip1)" clip-rule="nonzero">
<path style=" stroke:none;fill-rule:nonzero;fill:rgb(0%,0%,0%);fill-opacity:1;" d="M 24.058594 7.914062 C 24.058594 6.699219 21.976562 6.035156 20.105469 5.6875 L 19.765625 3.042969 C 19.644531 2.082031 18.828125 1.351562 17.863281 1.351562 L 11.640625 1.351562 C 10.679688 1.351562 9.855469 2.082031 9.734375 3.046875 L 9.394531 5.691406 C 7.523438 6.039062 5.441406 6.699219 5.441406 7.914062 C 5.441406 8.910156 6.871094 9.613281 8.902344 10.046875 C 8.894531 10.195312 8.878906 10.351562 8.878906 10.503906 C 8.878906 12.726562 9.8125 14.699219 11.246094 15.933594 L 8.976562 16.835938 C 7.28125 17.511719 6.183594 19.136719 6.183594 20.976562 L 6.183594 26.855469 C 6.183594 27.09375 6.375 27.289062 6.609375 27.289062 L 22.882812 27.289062 C 23.121094 27.289062 23.308594 27.09375 23.308594 26.855469 L 23.308594 20.976562 C 23.308594 19.136719 22.21875 17.511719 20.519531 16.835938 L 18.25 15.933594 C 19.683594 14.695312 20.617188 12.722656 20.617188 10.503906 C 20.617188 10.351562 20.601562 10.195312 20.59375 10.046875 C 22.628906 9.613281 24.058594 8.914062 24.058594 7.914062 Z M 8.304688 26.425781 L 7.042969 26.425781 L 7.042969 20.976562 C 7.042969 19.894531 7.519531 18.902344 8.304688 18.238281 Z M 21.199219 18.238281 C 21.988281 18.902344 22.460938 19.894531 22.460938 20.976562 L 22.460938 26.425781 L 21.199219 26.425781 Z M 19.824219 22.359375 L 19.824219 17.507812 L 20.339844 17.726562 L 20.339844 26.429688 L 9.160156 26.429688 L 9.160156 17.71875 L 9.679688 17.5 L 9.679688 22.351562 C 9.679688 22.589844 9.867188 22.785156 10.101562 22.785156 L 19.398438 22.785156 C 19.632812 22.789062 19.824219 22.597656 19.824219 22.359375 Z M 18.972656 17.148438 L 18.972656 21.921875 L 10.535156 21.921875 L 10.535156 17.148438 L 12.074219 16.535156 C 12.878906 17.015625 13.785156 17.289062 14.75 17.289062 C 15.714844 17.289062 16.621094 17.015625 17.425781 16.535156 Z M 14.75 16.425781 C 11.980469 16.425781 9.730469 13.769531 9.730469 10.503906 C 9.730469 10.402344 9.738281 10.304688 9.746094 10.207031 C 11.269531 10.460938 13.03125 10.582031 14.75 10.582031 C 16.464844 10.582031 18.226562 10.457031 19.757812 10.207031 C 19.761719 10.304688 19.769531 10.402344 19.769531 10.503906 C 19.769531 13.769531 17.519531 16.425781 14.75 16.425781 Z M 14.75 9.71875 C 9.277344 9.71875 6.296875 8.527344 6.296875 7.914062 C 6.296875 7.597656 7.261719 6.925781 9.851562 6.488281 C 10.035156 6.457031 10.179688 6.304688 10.207031 6.117188 L 10.585938 3.15625 C 10.652344 2.617188 11.109375 2.210938 11.648438 2.210938 L 17.867188 2.210938 C 18.402344 2.210938 18.859375 2.617188 18.929688 3.15625 L 19.308594 6.117188 C 19.335938 6.304688 19.480469 6.457031 19.664062 6.488281 C 22.253906 6.925781 23.21875 7.597656 23.21875 7.914062 C 23.207031 8.53125 20.222656 9.71875 14.75 9.71875 Z M 14.75 9.71875 "/>
</g>
</g>
</svg>
