<?xml version="1.0" encoding="UTF-8"?>
<svg xmlns="http://www.w3.org/2000/svg" xmlns:xlink="http://www.w3.org/1999/xlink" width="30pt" height="30.000001pt" viewBox="0 0 30 30.000001" version="1.2">
<defs>
<clipPath id="clip1">
  <path d="M 3.386719 3 L 26.613281 3 L 26.613281 26.128906 L 3.386719 26.128906 Z M 3.386719 3 "/>
</clipPath>
<clipPath id="clip2">
  <path d="M 3.386719 5 L 25 5 L 25 26.128906 L 3.386719 26.128906 Z M 3.386719 5 "/>
</clipPath>
<clipPath id="clip3">
  <path d="M 3.386719 18 L 12 18 L 12 26.128906 L 3.386719 26.128906 Z M 3.386719 18 "/>
</clipPath>
<clipPath id="clip4">
  <path d="M 3.386719 20 L 9 20 L 9 26.128906 L 3.386719 26.128906 Z M 3.386719 20 "/>
</clipPath>
<clipPath id="clip5">
  <path d="M 9 21 L 24 21 L 24 26.128906 L 9 26.128906 Z M 9 21 "/>
</clipPath>
<clipPath id="clip6">
  <path d="M 19 14 L 26.613281 14 L 26.613281 20 L 19 20 Z M 19 14 "/>
</clipPath>
<clipPath id="clip7">
  <path d="M 6 25 L 9 25 L 9 26.128906 L 6 26.128906 Z M 6 25 "/>
</clipPath>
<clipPath id="clip8">
  <path d="M 8 25 L 10 25 L 10 26.128906 L 8 26.128906 Z M 8 25 "/>
</clipPath>
</defs>
<g id="surface1">
<g clip-path="url(#clip1)" clip-rule="nonzero">
<path style="fill:none;stroke-width:1;stroke-linecap:round;stroke-linejoin:round;stroke:rgb(0%,0%,0%);stroke-opacity:1;stroke-miterlimit:4;" d="M 18.134053 1.894881 L 3.638778 16.401811 C 3.51834 16.510594 3.417328 16.631032 3.331856 16.763125 L 3.265809 16.763125 L 1.055193 22.94042 L 7.248028 20.741458 L 7.248028 20.671527 C 7.372351 20.578285 7.492789 20.481157 7.609341 20.380145 L 22.120157 5.865444 C 22.388228 5.601258 22.594138 5.294336 22.737887 4.948563 C 22.88552 4.602789 22.959337 4.241476 22.959337 3.868507 C 22.959337 3.491653 22.889405 3.13034 22.745657 2.784567 C 22.601908 2.438794 22.395999 2.131871 22.131812 1.867685 C 21.867626 1.603499 21.560704 1.397589 21.211046 1.257726 C 20.865273 1.113978 20.503959 1.044046 20.127105 1.047931 C 19.754137 1.047931 19.392823 1.125633 19.04705 1.269381 C 18.701277 1.417015 18.39824 1.622925 18.134053 1.894881 Z M 18.134053 1.894881 " transform="matrix(1.005446,0,0,1.005446,2.884373,2.501049)"/>
</g>
<g clip-path="url(#clip2)" clip-rule="nonzero">
<path style="fill:none;stroke-width:1;stroke-linecap:round;stroke-linejoin:round;stroke:rgb(0%,0%,0%);stroke-opacity:1;stroke-miterlimit:4;" d="M 15.799114 4.245361 L 3.634893 16.401811 C 3.51834 16.510594 3.417328 16.631032 3.331856 16.763125 L 3.265809 16.763125 L 1.055193 22.94042 L 7.248028 20.741458 L 7.248028 20.671527 C 7.372351 20.578285 7.492789 20.481157 7.609341 20.380145 L 19.769677 8.215924 C 20.045518 7.955623 20.263083 7.648701 20.418487 7.302928 C 20.573891 6.95327 20.655478 6.588071 20.663248 6.207332 C 20.671018 5.826593 20.601086 5.461395 20.461223 5.107851 C 20.317475 4.754308 20.111565 4.443501 19.843494 4.171544 C 19.571537 3.903473 19.26073 3.697563 18.907187 3.553815 C 18.553643 3.410066 18.188445 3.34402 17.803821 3.35179 C 17.423082 3.355675 17.057883 3.437262 16.71211 3.592666 C 16.362452 3.748069 16.059415 3.965635 15.799114 4.245361 Z M 15.799114 4.245361 " transform="matrix(1.005446,0,0,1.005446,2.884373,2.501049)"/>
</g>
<g clip-path="url(#clip3)" clip-rule="nonzero">
<path style="fill:none;stroke-width:1;stroke-linecap:round;stroke-linejoin:round;stroke:rgb(0%,0%,0%);stroke-opacity:1;stroke-miterlimit:4;" d="M 1.055193 22.94042 L 7.166441 20.764769 C 7.376236 20.496698 7.53164 20.197546 7.632652 19.871198 C 7.737549 19.54485 7.7764 19.210732 7.756975 18.868844 C 7.737549 18.526956 7.655963 18.200609 7.516099 17.889801 C 7.376236 17.575109 7.185866 17.299268 6.944991 17.058392 C 6.704115 16.813631 6.428274 16.623262 6.113581 16.483398 C 5.802774 16.343535 5.476426 16.261948 5.134538 16.242523 C 4.79265 16.223097 4.458532 16.265833 4.132185 16.370731 C 3.805837 16.471743 3.51057 16.631032 3.242499 16.844712 Z M 1.055193 22.94042 " transform="matrix(1.005446,0,0,1.005446,2.884373,2.501049)"/>
</g>
<g clip-path="url(#clip4)" clip-rule="nonzero">
<path style="fill:none;stroke-width:1;stroke-linecap:round;stroke-linejoin:round;stroke:rgb(0%,0%,0%);stroke-opacity:1;stroke-miterlimit:4;" d="M 4.57897 19.436068 C 4.031172 18.892155 3.370707 18.627969 2.597574 18.635739 L 1.055193 22.94042 L 5.379299 21.386384 C 5.379299 20.628791 5.111228 19.976095 4.57897 19.436068 Z M 4.57897 19.436068 " transform="matrix(1.005446,0,0,1.005446,2.884373,2.501049)"/>
</g>
<g clip-path="url(#clip5)" clip-rule="nonzero">
<path style="fill:none;stroke-width:1;stroke-linecap:round;stroke-linejoin:round;stroke:rgb(0%,0%,0%);stroke-opacity:1;stroke-miterlimit:4;" d="M 15.62817 19.583701 L 17.900948 19.583701 C 18.122398 19.583701 18.336078 19.626437 18.541988 19.715794 C 18.747898 19.801266 18.930497 19.921704 19.089786 20.080993 C 19.24519 20.240282 19.365627 20.422881 19.451099 20.628791 C 19.536571 20.834701 19.579307 21.048381 19.579307 21.273716 C 19.579307 21.495166 19.536571 21.708846 19.451099 21.914756 C 19.365627 22.116781 19.24519 22.29938 19.085901 22.454784 C 18.926612 22.610187 18.747898 22.730625 18.541988 22.816097 C 18.336078 22.901569 18.122398 22.94042 17.900948 22.94042 L 7.453938 22.94042 " transform="matrix(1.005446,0,0,1.005446,2.884373,2.501049)"/>
</g>
<path style="fill:none;stroke-width:1;stroke-linecap:round;stroke-linejoin:round;stroke:rgb(0%,0%,0%);stroke-opacity:1;stroke-miterlimit:4;" d="M 17.322069 19.579816 L 15.037636 19.579816 C 14.816186 19.583701 14.602506 19.540965 14.400481 19.455493 C 14.194571 19.370021 14.011972 19.249583 13.856568 19.09418 C 13.701164 18.938776 13.580727 18.756177 13.495255 18.554152 C 13.409783 18.348242 13.370932 18.134562 13.370932 17.913112 C 13.370932 17.691662 13.409783 17.477982 13.495255 17.272072 C 13.580727 17.070047 13.701164 16.887448 13.856568 16.732044 C 14.011972 16.576641 14.194571 16.456203 14.400481 16.370731 C 14.602506 16.285259 14.816186 16.242523 15.037636 16.246408 L 19.373398 16.246408 " transform="matrix(1.005446,0,0,1.005446,2.884373,2.501049)"/>
<g clip-path="url(#clip6)" clip-rule="nonzero">
<path style="fill:none;stroke-width:1;stroke-linecap:round;stroke-linejoin:round;stroke:rgb(0%,0%,0%);stroke-opacity:1;stroke-miterlimit:4;" d="M 18.984888 12.885804 L 21.265437 12.885804 C 21.486887 12.885804 21.700567 12.92854 21.906477 13.017897 C 22.112387 13.103369 22.294986 13.227692 22.45039 13.383096 C 22.609679 13.542384 22.730116 13.724984 22.815588 13.930893 C 22.897175 14.136803 22.939911 14.350483 22.939911 14.575819 C 22.939911 14.797269 22.897175 15.010949 22.811703 15.212974 C 22.726231 15.418883 22.605793 15.601483 22.45039 15.756886 C 22.291101 15.91229 22.108502 16.032728 21.906477 16.1182 C 21.700567 16.199787 21.486887 16.242523 21.265437 16.242523 L 16.937445 16.242523 " transform="matrix(1.005446,0,0,1.005446,2.884373,2.501049)"/>
</g>
<g clip-path="url(#clip7)" clip-rule="nonzero">
<path style="fill:none;stroke-width:1;stroke-linecap:round;stroke-linejoin:round;stroke:rgb(0%,0%,0%);stroke-opacity:1;stroke-miterlimit:4;" d="M 4.404141 22.94042 L 4.602281 22.94042 " transform="matrix(1.005446,0,0,1.005446,2.884373,2.501049)"/>
</g>
<g clip-path="url(#clip8)" clip-rule="nonzero">
<path style="fill:none;stroke-width:1;stroke-linecap:round;stroke-linejoin:round;stroke:rgb(0%,0%,0%);stroke-opacity:1;stroke-miterlimit:4;" d="M 5.892131 22.94042 L 6.07473 22.94042 " transform="matrix(1.005446,0,0,1.005446,2.884373,2.501049)"/>
</g>
</g>
</svg>
