<?xml version="1.0" encoding="UTF-8"?>
<svg xmlns="http://www.w3.org/2000/svg" xmlns:xlink="http://www.w3.org/1999/xlink" width="30pt" height="30.000001pt" viewBox="0 0 30 30.000001" version="1.2">
<defs>
<clipPath id="clip1">
  <path d="M 17 14 L 27.878906 14 L 27.878906 16 L 17 16 Z M 17 14 "/>
</clipPath>
<clipPath id="clip2">
  <path d="M 5.378906 2.601562 L 17 2.601562 L 17 26.554688 L 5.378906 26.554688 Z M 5.378906 2.601562 "/>
</clipPath>
</defs>
<g id="surface1">
<path style=" stroke:none;fill-rule:nonzero;fill:rgb(0%,0%,0%);fill-opacity:1;" d="M 22.453125 19.054688 C 22.347656 19.054688 22.242188 19.015625 22.164062 18.9375 L 18.097656 14.925781 C 17.941406 14.765625 17.941406 14.511719 18.097656 14.355469 C 18.257812 14.199219 18.515625 14.199219 18.675781 14.355469 L 22.738281 18.371094 C 22.898438 18.527344 22.898438 18.78125 22.738281 18.9375 C 22.660156 19.015625 22.554688 19.054688 22.453125 19.054688 Z M 22.453125 19.054688 "/>
<path style=" stroke:none;fill-rule:nonzero;fill:rgb(0%,0%,0%);fill-opacity:1;" d="M 18.386719 15.042969 C 18.28125 15.042969 18.179688 15.003906 18.097656 14.925781 C 17.941406 14.765625 17.941406 14.511719 18.097656 14.355469 L 22.164062 10.34375 C 22.324219 10.1875 22.582031 10.1875 22.738281 10.34375 C 22.898438 10.5 22.898438 10.753906 22.738281 10.910156 L 18.675781 14.925781 C 18.59375 15.003906 18.492188 15.042969 18.386719 15.042969 Z M 18.386719 15.042969 "/>
<g clip-path="url(#clip1)" clip-rule="nonzero">
<path style=" stroke:none;fill-rule:nonzero;fill:rgb(0%,0%,0%);fill-opacity:1;" d="M 27.734375 15.042969 L 18.386719 15.042969 C 18.164062 15.042969 17.980469 14.863281 17.980469 14.640625 C 17.980469 14.417969 18.164062 14.238281 18.386719 14.238281 L 27.734375 14.238281 C 27.960938 14.238281 28.140625 14.417969 28.140625 14.640625 C 28.140625 14.863281 27.960938 15.042969 27.734375 15.042969 Z M 27.734375 15.042969 "/>
</g>
<g clip-path="url(#clip2)" clip-rule="nonzero">
<path style=" stroke:none;fill-rule:nonzero;fill:rgb(0%,0%,0%);fill-opacity:1;" d="M 16.355469 26.679688 C 16.332031 26.679688 16.3125 26.675781 16.292969 26.675781 L 5.722656 25.070312 C 5.527344 25.039062 5.378906 24.871094 5.378906 24.671875 L 5.378906 4.609375 C 5.378906 4.410156 5.527344 4.242188 5.722656 4.210938 L 16.292969 2.605469 C 16.410156 2.589844 16.53125 2.621094 16.617188 2.699219 C 16.710938 2.773438 16.761719 2.886719 16.761719 3.003906 L 16.761719 26.277344 C 16.761719 26.394531 16.710938 26.507812 16.617188 26.582031 C 16.546875 26.644531 16.449219 26.679688 16.355469 26.679688 Z M 6.191406 24.328125 L 15.949219 25.808594 L 15.949219 3.46875 L 6.191406 4.953125 Z M 6.191406 24.328125 "/>
</g>
<path style=" stroke:none;fill-rule:nonzero;fill:rgb(0%,0%,0%);fill-opacity:1;" d="M 21.640625 25.476562 L 16.355469 25.476562 C 16.128906 25.476562 15.949219 25.296875 15.949219 25.074219 L 15.949219 4.207031 C 15.949219 3.984375 16.128906 3.804688 16.355469 3.804688 L 21.640625 3.804688 C 21.863281 3.804688 22.046875 3.984375 22.046875 4.207031 L 22.046875 9.421875 C 22.046875 9.644531 21.863281 9.824219 21.640625 9.824219 C 21.414062 9.824219 21.230469 9.644531 21.230469 9.421875 L 21.230469 4.609375 L 16.761719 4.609375 L 16.761719 24.671875 L 21.230469 24.671875 L 21.230469 19.855469 C 21.230469 19.636719 21.414062 19.457031 21.640625 19.457031 C 21.863281 19.457031 22.046875 19.636719 22.046875 19.855469 L 22.046875 25.074219 C 22.046875 25.296875 21.863281 25.476562 21.640625 25.476562 Z M 21.640625 25.476562 "/>
<path style=" stroke:none;fill-rule:nonzero;fill:rgb(0%,0%,0%);fill-opacity:1;" d="M 13.507812 15.84375 C 12.613281 15.84375 11.882812 15.125 11.882812 14.238281 C 11.882812 13.355469 12.613281 12.632812 13.507812 12.632812 C 14.40625 12.632812 15.136719 13.355469 15.136719 14.238281 C 15.136719 15.125 14.40625 15.84375 13.507812 15.84375 Z M 13.507812 13.4375 C 13.0625 13.4375 12.695312 13.796875 12.695312 14.238281 C 12.695312 14.683594 13.0625 15.042969 13.507812 15.042969 C 13.957031 15.042969 14.320312 14.683594 14.320312 14.238281 C 14.320312 13.796875 13.957031 13.4375 13.507812 13.4375 Z M 13.507812 13.4375 "/>
</g>
</svg>
