<?xml version="1.0" encoding="UTF-8"?>
<svg xmlns="http://www.w3.org/2000/svg" xmlns:xlink="http://www.w3.org/1999/xlink" width="150pt" height="149.999998pt" viewBox="0 0 150 149.999998" version="1.2">
<defs>
<clipPath id="clip1">
  <path d="M 8.097656 8.097656 L 141.597656 8.097656 L 141.597656 141.597656 L 8.097656 141.597656 Z M 8.097656 8.097656 "/>
</clipPath>
</defs>
<g id="surface1">
<g clip-path="url(#clip1)" clip-rule="nonzero">
<path style=" stroke:none;fill-rule:nonzero;fill:rgb(25.878906%,3.138733%,3.138733%);fill-opacity:1;" d="M 33.769531 8.097656 C 19.648438 8.097656 8.097656 19.648438 8.097656 33.769531 L 8.097656 115.921875 C 8.097656 130.042969 19.648438 141.597656 33.769531 141.597656 L 115.921875 141.597656 C 130.042969 141.597656 141.597656 130.042969 141.597656 115.921875 L 141.597656 33.769531 C 141.597656 19.648438 130.042969 8.097656 115.921875 8.097656 Z M 33.769531 18.367188 L 115.921875 18.367188 C 124.5 18.367188 131.328125 25.195312 131.328125 33.769531 L 131.328125 115.921875 C 131.328125 124.5 124.5 131.328125 115.921875 131.328125 L 99.535156 131.328125 L 99.535156 89.910156 L 113.878906 89.910156 L 116.023438 73.382812 L 99.535156 73.382812 L 99.535156 62.851562 C 99.535156 58.066406 100.867188 54.808594 107.78125 54.808594 L 116.605469 54.808594 L 116.605469 40.027344 C 115.074219 39.820312 109.839844 39.386719 103.75 39.386719 C 91.035156 39.386719 82.347656 47.078125 82.347656 61.207031 L 82.347656 73.382812 L 69.710938 73.34375 L 69.710938 89.867188 L 82.347656 89.910156 L 82.347656 131.328125 L 33.769531 131.328125 C 25.195312 131.328125 18.367188 124.5 18.367188 115.921875 L 18.367188 33.769531 C 18.367188 25.195312 25.195312 18.367188 33.769531 18.367188 Z M 33.769531 18.367188 "/>
</g>
</g>
</svg>
