<?xml version="1.0" encoding="UTF-8"?>
<svg xmlns="http://www.w3.org/2000/svg" xmlns:xlink="http://www.w3.org/1999/xlink" width="30pt" height="30.000001pt" viewBox="0 0 30 30.000001" version="1.2">
<defs>
<clipPath id="clip1">
  <path d="M 0.992188 0.507812 L 29.296875 0.507812 L 29.296875 28.816406 L 0.992188 28.816406 Z M 0.992188 0.507812 "/>
</clipPath>
</defs>
<g id="surface1">
<path style=" stroke:none;fill-rule:nonzero;fill:rgb(0%,0%,0%);fill-opacity:1;" d="M 7.890625 25.828125 C 7.804688 25.828125 7.746094 25.796875 7.6875 25.738281 L 6.34375 24.398438 C 6.226562 24.28125 6.226562 24.105469 6.34375 23.988281 C 6.460938 23.871094 6.636719 23.871094 6.753906 23.988281 L 8.09375 25.332031 C 8.210938 25.449219 8.210938 25.621094 8.09375 25.738281 C 8.035156 25.796875 7.976562 25.828125 7.890625 25.828125 "/>
<path style=" stroke:none;fill-rule:nonzero;fill:rgb(0%,0%,0%);fill-opacity:1;" d="M 4.828125 26.003906 C 4.738281 26.003906 4.679688 25.972656 4.621094 25.914062 L 3.074219 24.398438 C 2.957031 24.28125 2.957031 24.105469 3.074219 23.988281 C 3.191406 23.871094 3.367188 23.871094 3.484375 23.988281 L 5.03125 25.507812 C 5.148438 25.621094 5.148438 25.796875 5.03125 25.914062 C 4.972656 25.972656 4.914062 26.003906 4.828125 26.003906 "/>
<path style=" stroke:none;fill-rule:nonzero;fill:rgb(0%,0%,0%);fill-opacity:1;" d="M 9.117188 19.320312 C 9.027344 19.320312 8.972656 19.289062 8.914062 19.230469 L 7.367188 17.683594 C 7.246094 17.566406 7.246094 17.390625 7.367188 17.273438 C 7.480469 17.15625 7.65625 17.15625 7.773438 17.273438 L 9.320312 18.824219 C 9.4375 18.9375 9.4375 19.113281 9.320312 19.230469 C 9.261719 19.289062 9.203125 19.320312 9.117188 19.320312 "/>
<path style=" stroke:none;fill-rule:nonzero;fill:rgb(0%,0%,0%);fill-opacity:1;" d="M 9 22.734375 C 8.914062 22.734375 8.851562 22.703125 8.796875 22.644531 L 7.480469 21.304688 C 7.367188 21.1875 7.367188 21.011719 7.480469 20.894531 C 7.597656 20.777344 7.773438 20.777344 7.890625 20.894531 L 9.203125 22.238281 C 9.320312 22.355469 9.320312 22.527344 9.203125 22.644531 C 9.144531 22.703125 9.085938 22.734375 9 22.734375 "/>
<path style=" stroke:none;fill-rule:nonzero;fill:rgb(0%,0%,0%);fill-opacity:1;" d="M 16.445312 15.84375 C 16.324219 15.726562 16.152344 15.757812 16.035156 15.875 C 15.945312 15.992188 15.945312 16.136719 16.035156 16.253906 L 17.347656 17.566406 C 17.464844 17.683594 17.640625 17.683594 17.757812 17.566406 C 17.875 17.449219 17.875 17.273438 17.757812 17.15625 L 16.445312 15.84375 "/>
<g clip-path="url(#clip1)" clip-rule="nonzero">
<path style=" stroke:none;fill-rule:nonzero;fill:rgb(0%,0%,0%);fill-opacity:1;" d="M 24.703125 11.4375 C 23.128906 12.078125 21.347656 12.195312 19.683594 11.789062 L 19.710938 11.789062 C 19.917969 11.757812 20.09375 11.730469 20.296875 11.671875 L 20.414062 11.640625 C 20.792969 11.554688 21.171875 11.40625 21.550781 11.261719 L 21.667969 11.234375 C 21.84375 11.144531 22.019531 11.085938 22.191406 11 L 22.28125 10.941406 C 22.632812 10.765625 22.980469 10.53125 23.332031 10.296875 L 23.417969 10.242188 C 23.566406 10.125 23.742188 10.007812 23.886719 9.859375 L 23.972656 9.800781 C 24.003906 9.800781 24.003906 9.800781 24.03125 9.800781 L 28.730469 7.933594 C 27.828125 9.511719 26.394531 10.765625 24.703125 11.4375 Z M 18.078125 18.53125 L 14.488281 20.921875 C 14.488281 20.921875 14.488281 20.894531 14.457031 20.894531 L 12.269531 18.703125 C 12.152344 18.589844 11.976562 18.589844 11.859375 18.703125 C 11.742188 18.824219 11.742188 18.996094 11.859375 19.113281 L 14.019531 21.273438 L 3.484375 28.308594 C 2.929688 28.71875 2.167969 28.570312 1.761719 28.015625 C 1.441406 27.578125 1.441406 27.023438 1.761719 26.585938 L 10.226562 13.945312 L 11.394531 15.113281 C 11.453125 15.175781 11.511719 15.203125 11.597656 15.203125 C 11.683594 15.203125 11.742188 15.175781 11.800781 15.113281 C 11.917969 15 11.917969 14.824219 11.800781 14.707031 L 10.546875 13.453125 L 11.539062 11.992188 C 12.210938 10.96875 13.320312 10.328125 14.515625 10.210938 C 14.664062 10.210938 14.777344 10.183594 14.925781 10.183594 L 15.011719 10.183594 C 15.886719 12.402344 17.640625 14.179688 19.886719 15.054688 C 19.886719 16.457031 19.214844 17.769531 18.078125 18.53125 Z M 18.660156 5.394531 C 19.332031 3.703125 20.589844 2.300781 22.191406 1.394531 L 20.441406 5.921875 C 20.441406 5.921875 20.441406 5.921875 20.441406 5.949219 L 20.296875 6.097656 L 20.238281 6.183594 C 20.121094 6.328125 19.972656 6.476562 19.859375 6.648438 L 19.800781 6.738281 C 19.566406 7.058594 19.363281 7.410156 19.15625 7.789062 L 19.097656 7.875 C 19.011719 8.050781 18.925781 8.226562 18.863281 8.402344 L 18.835938 8.519531 C 18.691406 8.898438 18.542969 9.277344 18.457031 9.65625 L 18.425781 9.773438 C 18.371094 9.976562 18.339844 10.152344 18.3125 10.359375 L 18.3125 10.386719 C 17.902344 8.722656 18.019531 6.972656 18.660156 5.394531 Z M 22.746094 4.167969 L 22.457031 4.316406 C 22.339844 4.402344 22.191406 4.460938 22.074219 4.546875 C 21.988281 4.605469 21.902344 4.667969 21.84375 4.695312 C 21.699219 4.78125 21.578125 4.898438 21.464844 4.988281 C 21.433594 5.015625 21.40625 5.015625 21.40625 5.042969 L 22.71875 1.601562 C 22.953125 2.390625 23.070312 3.175781 23.039062 3.996094 C 22.953125 4.054688 22.835938 4.109375 22.746094 4.167969 Z M 25.082031 8.636719 C 25.199219 8.519531 25.285156 8.371094 25.375 8.253906 C 25.433594 8.167969 25.492188 8.109375 25.519531 8.023438 C 25.609375 7.90625 25.695312 7.757812 25.753906 7.644531 C 25.8125 7.527344 25.839844 7.46875 25.898438 7.378906 C 25.957031 7.292969 26.015625 7.175781 26.046875 7.089844 C 26.863281 7.089844 27.652344 7.207031 28.4375 7.4375 L 24.9375 8.8125 C 24.996094 8.753906 25.054688 8.691406 25.082031 8.636719 Z M 18.863281 10.386719 C 18.894531 10.183594 18.953125 9.976562 19.011719 9.746094 C 19.011719 9.714844 19.039062 9.6875 19.039062 9.65625 C 19.097656 9.453125 19.15625 9.25 19.214844 9.074219 L 19.246094 8.984375 C 19.304688 8.78125 19.390625 8.605469 19.480469 8.402344 L 19.507812 8.316406 C 19.59375 8.140625 19.683594 7.933594 19.800781 7.757812 C 19.828125 7.730469 19.828125 7.703125 19.859375 7.671875 C 19.972656 7.496094 20.0625 7.320312 20.179688 7.148438 L 20.238281 7.089844 C 20.355469 6.914062 20.5 6.738281 20.617188 6.5625 L 20.644531 6.535156 C 20.792969 6.359375 20.9375 6.183594 21.113281 6.039062 C 22.398438 4.753906 24.117188 3.90625 25.929688 3.730469 L 18.808594 11 C 18.835938 10.824219 18.835938 10.648438 18.863281 10.445312 Z M 18.164062 11.757812 L 18.691406 12.285156 C 19.273438 12.867188 19.683594 13.625 19.828125 14.472656 C 17.960938 13.625 16.472656 12.136719 15.65625 10.269531 C 16.472656 10.417969 17.230469 10.796875 17.84375 11.40625 Z M 23.535156 9.421875 L 23.507812 9.453125 C 23.332031 9.597656 23.15625 9.714844 22.980469 9.832031 L 22.921875 9.890625 C 22.746094 10.007812 22.574219 10.125 22.398438 10.210938 L 22.308594 10.269531 C 22.136719 10.359375 21.960938 10.472656 21.753906 10.5625 L 21.667969 10.589844 C 21.492188 10.679688 21.289062 10.765625 21.082031 10.824219 L 20.996094 10.855469 C 20.792969 10.910156 20.589844 11 20.414062 11.027344 L 20.324219 11.058594 C 20.121094 11.117188 19.917969 11.144531 19.683594 11.203125 L 19.625 11.203125 C 19.535156 11.234375 19.421875 11.234375 19.332031 11.234375 L 26.335938 4.140625 C 26.25 5.015625 26.015625 5.863281 25.636719 6.648438 C 25.226562 7.496094 24.703125 8.285156 24.03125 8.957031 C 23.886719 9.132812 23.710938 9.277344 23.535156 9.421875 Z M 29.605469 7.378906 C 29.605469 7.351562 29.605469 7.320312 29.578125 7.261719 C 29.578125 7.261719 29.578125 7.234375 29.546875 7.234375 C 29.546875 7.207031 29.519531 7.175781 29.519531 7.175781 C 29.492188 7.148438 29.460938 7.148438 29.433594 7.117188 C 28.4375 6.710938 27.390625 6.503906 26.335938 6.476562 C 26.746094 5.484375 26.949219 4.433594 26.980469 3.382812 C 26.980469 3.351562 26.980469 3.324219 26.980469 3.292969 L 26.980469 3.265625 C 26.980469 3.234375 26.949219 3.234375 26.949219 3.207031 C 26.949219 3.207031 26.949219 3.175781 26.921875 3.175781 L 26.890625 3.148438 C 26.863281 3.148438 26.863281 3.117188 26.832031 3.117188 C 26.804688 3.117188 26.746094 3.089844 26.71875 3.089844 C 25.667969 3.117188 24.617188 3.324219 23.652344 3.730469 C 23.621094 2.710938 23.390625 1.660156 22.980469 0.667969 C 22.980469 0.636719 22.953125 0.636719 22.953125 0.609375 C 22.953125 0.609375 22.953125 0.578125 22.921875 0.578125 C 22.894531 0.578125 22.894531 0.550781 22.863281 0.550781 L 22.835938 0.519531 C 22.804688 0.519531 22.804688 0.519531 22.777344 0.519531 C 22.71875 0.492188 22.660156 0.519531 22.632812 0.550781 C 18.777344 2.273438 16.707031 6.503906 17.757812 10.589844 C 15.714844 9.042969 12.824219 9.421875 11.246094 11.464844 C 11.1875 11.554688 11.128906 11.613281 11.070312 11.699219 L 1.292969 26.292969 C 0.738281 27.113281 0.972656 28.25 1.789062 28.804688 C 2.082031 29.007812 2.433594 29.125 2.78125 29.097656 C 3.132812 29.097656 3.484375 28.980469 3.773438 28.804688 L 18.371094 19.027344 C 19.742188 18.121094 20.53125 16.574219 20.441406 14.941406 C 20.441406 14.910156 20.441406 14.882812 20.441406 14.882812 C 20.382812 13.976562 20.0625 13.101562 19.507812 12.371094 C 23.59375 13.394531 27.855469 11.351562 29.605469 7.496094 C 29.605469 7.46875 29.605469 7.410156 29.605469 7.378906 "/>
</g>
</g>
</svg>
