<?xml version="1.0" encoding="UTF-8"?>
<svg xmlns="http://www.w3.org/2000/svg" xmlns:xlink="http://www.w3.org/1999/xlink" width="30pt" height="30.000001pt" viewBox="0 0 30 30.000001" version="1.2">
<defs>
<clipPath id="clip1">
  <path d="M 1.933594 2.902344 L 28.066406 2.902344 L 28.066406 26.128906 L 1.933594 26.128906 Z M 1.933594 2.902344 "/>
</clipPath>
</defs>
<g id="surface1">
<path style=" stroke:none;fill-rule:nonzero;fill:rgb(0%,0%,0%);fill-opacity:1;" d="M 15.949219 20.109375 C 21.558594 19.1875 20.171875 15.46875 22.617188 13.027344 C 18.117188 12.882812 14.980469 14.511719 14.410156 18.179688 C 13.621094 13.410156 10.996094 12.632812 7.867188 12.941406 C 9.972656 15.476562 9.472656 17.53125 12.824219 17.425781 C 12.117188 16 11.074219 14.800781 9.699219 13.824219 C 14.109375 14.925781 14.625 19.21875 13.867188 24.550781 L 15.035156 24.550781 C 14.164062 18.242188 16.296875 14.804688 20.78125 13.613281 C 18.207031 15.078125 16.523438 17.457031 15.949219 20.109375 "/>
<g clip-path="url(#clip1)" clip-rule="nonzero">
<path style=" stroke:none;fill-rule:nonzero;fill:rgb(0%,0%,0%);fill-opacity:1;" d="M 14.789062 24.550781 L 6.171875 24.550781 L 6.171875 11.691406 L 6.167969 11.691406 L 15 5.003906 L 23.832031 11.691406 L 23.828125 11.691406 L 23.828125 24.550781 Z M 15.167969 2.902344 L 1.953125 12.90625 L 2.898438 14.167969 L 4.601562 12.878906 L 4.601562 26.128906 L 25.398438 26.128906 L 25.398438 12.878906 L 27.101562 14.167969 L 28.042969 12.90625 L 15.167969 2.902344 "/>
</g>
<path style=" stroke:none;fill-rule:nonzero;fill:rgb(0%,0%,0%);fill-opacity:1;" d="M 23.96875 8.671875 L 19.804688 5.558594 L 19.804688 3.050781 L 23.96875 3.050781 L 23.96875 8.671875 "/>
</g>
</svg>
