<?xml version="1.0" encoding="UTF-8"?>
<svg xmlns="http://www.w3.org/2000/svg" xmlns:xlink="http://www.w3.org/1999/xlink" width="150pt" height="149.999998pt" viewBox="0 0 150 149.999998" version="1.2">
<defs>
<clipPath id="clip1">
  <path d="M 7.035156 7.035156 L 142.785156 7.035156 L 142.785156 142.785156 L 7.035156 142.785156 Z M 7.035156 7.035156 "/>
</clipPath>
</defs>
<g id="surface1">
<g clip-path="url(#clip1)" clip-rule="nonzero">
<path style=" stroke:none;fill-rule:nonzero;fill:rgb(25.878906%,3.138733%,3.138733%);fill-opacity:1;" d="M 46.441406 7.035156 C 24.738281 7.035156 7.035156 24.738281 7.035156 46.441406 L 7.035156 103.421875 C 7.035156 125.082031 24.738281 142.785156 46.441406 142.785156 L 103.421875 142.785156 C 125.082031 142.785156 142.785156 125.082031 142.785156 103.382812 L 142.785156 46.441406 C 142.785156 24.738281 125.082031 7.035156 103.382812 7.035156 Z M 46.441406 17.480469 L 103.382812 17.480469 C 119.453125 17.480469 132.34375 30.367188 132.34375 46.441406 L 132.34375 103.382812 C 132.34375 119.453125 119.453125 132.34375 103.421875 132.34375 L 46.441406 132.34375 C 30.367188 132.34375 17.480469 119.453125 17.480469 103.421875 L 17.480469 46.441406 C 17.480469 30.367188 30.367188 17.480469 46.441406 17.480469 Z M 116.679688 27.921875 C 113.785156 27.921875 111.460938 30.246094 111.460938 33.140625 C 111.460938 36.039062 113.785156 38.363281 116.679688 38.363281 C 119.578125 38.363281 121.902344 36.039062 121.902344 33.140625 C 121.902344 30.246094 119.578125 27.921875 116.679688 27.921875 Z M 74.910156 38.363281 C 54.800781 38.363281 38.363281 54.800781 38.363281 74.910156 C 38.363281 95.019531 54.800781 111.460938 74.910156 111.460938 C 95.019531 111.460938 111.460938 95.019531 111.460938 74.910156 C 111.460938 54.800781 95.019531 38.363281 74.910156 38.363281 Z M 74.910156 48.804688 C 89.390625 48.804688 101.015625 60.429688 101.015625 74.910156 C 101.015625 89.390625 89.390625 101.015625 74.910156 101.015625 C 60.429688 101.015625 48.804688 89.390625 48.804688 74.910156 C 48.804688 60.429688 60.429688 48.804688 74.910156 48.804688 Z M 74.910156 48.804688 "/>
</g>
</g>
</svg>
