<?xml version="1.0" encoding="UTF-8"?>
<svg xmlns="http://www.w3.org/2000/svg" xmlns:xlink="http://www.w3.org/1999/xlink" width="30pt" height="30.000001pt" viewBox="0 0 30 30.000001" version="1.2">
<defs>
<clipPath id="clip1">
  <path d="M 4.972656 1.453125 L 25.296875 1.453125 L 25.296875 27.582031 L 4.972656 27.582031 Z M 4.972656 1.453125 "/>
</clipPath>
</defs>
<g id="surface1">
<g clip-path="url(#clip1)" clip-rule="nonzero">
<path style=" stroke:none;fill-rule:nonzero;fill:rgb(0%,0%,0%);fill-opacity:1;" d="M 5.863281 9.738281 C 5.863281 9.519531 5.921875 9.300781 6.027344 9.109375 L 8.355469 4.933594 L 13.128906 4.933594 L 11.640625 8.242188 C 11.582031 8.375 11.59375 8.535156 11.671875 8.65625 C 11.757812 8.78125 11.894531 8.855469 12.042969 8.855469 L 14.691406 8.855469 C 14.867188 8.855469 15.027344 8.753906 15.097656 8.597656 L 16.746094 4.933594 L 21.453125 4.933594 L 19.375 8.691406 C 19.199219 9.011719 19.105469 9.371094 19.105469 9.734375 L 19.105469 25.402344 C 19.105469 25.894531 19.277344 26.34375 19.558594 26.710938 L 7.628906 26.710938 C 6.65625 26.710938 5.863281 25.929688 5.863281 24.96875 Z M 8.78125 2.578125 C 8.945312 2.414062 9.171875 2.324219 9.40625 2.324219 L 13.367188 2.324219 L 13.367188 4.066406 L 8.53125 4.066406 L 8.523438 3.199219 C 8.523438 2.96875 8.613281 2.746094 8.78125 2.578125 Z M 15.777344 4.933594 L 14.40625 7.984375 L 12.722656 7.984375 L 14.097656 4.933594 Z M 16.015625 2.324219 L 16.015625 4.066406 L 14.25 4.066406 L 14.25 2.324219 Z M 21.753906 3.195312 L 21.753906 4.066406 L 16.898438 4.066406 L 16.898438 2.324219 L 22 2.324219 C 21.847656 2.578125 21.753906 2.875 21.753906 3.195312 Z M 24.242188 9.109375 C 24.347656 9.300781 24.402344 9.515625 24.402344 9.734375 L 24.402344 25.402344 C 24.402344 25.484375 24.394531 25.558594 24.378906 25.632812 L 22.636719 23.917969 L 22.636719 6.207031 Z M 21.3125 26.710938 C 20.996094 26.710938 20.707031 26.59375 20.476562 26.410156 L 22.195312 24.710938 L 23.914062 26.410156 C 23.6875 26.59375 23.398438 26.710938 23.078125 26.710938 Z M 19.988281 25.402344 L 19.988281 9.734375 C 19.988281 9.515625 20.042969 9.300781 20.152344 9.109375 L 21.753906 6.207031 L 21.753906 23.917969 L 20.015625 25.632812 C 20 25.558594 19.988281 25.484375 19.988281 25.402344 Z M 4.980469 9.738281 L 4.980469 24.96875 C 4.980469 26.410156 6.171875 27.582031 7.628906 27.582031 L 23.078125 27.582031 C 24.296875 27.582031 25.285156 26.605469 25.285156 25.402344 L 25.285156 9.734375 C 25.285156 9.371094 25.191406 9.011719 25.015625 8.691406 L 22.636719 4.390625 L 22.636719 3.195312 C 22.636719 2.714844 23.035156 2.324219 23.519531 2.324219 C 24.007812 2.324219 24.402344 2.714844 24.402344 3.195312 L 24.402344 3.847656 C 24.402344 3.96875 24.304688 4.066406 24.183594 4.066406 C 24.058594 4.066406 23.960938 3.96875 23.960938 3.847656 L 23.960938 3.195312 L 23.078125 3.195312 L 23.078125 3.847656 C 23.078125 4.449219 23.574219 4.933594 24.183594 4.933594 C 24.792969 4.933594 25.285156 4.449219 25.285156 3.847656 L 25.285156 3.195312 C 25.285156 2.234375 24.496094 1.453125 23.519531 1.453125 L 9.40625 1.453125 C 8.933594 1.453125 8.488281 1.632812 8.152344 1.96875 C 7.820312 2.296875 7.636719 2.738281 7.640625 3.207031 L 7.652344 4.390625 L 5.253906 8.6875 C 5.078125 9.007812 4.980469 9.371094 4.980469 9.738281 "/>
</g>
<path style=" stroke:none;fill-rule:nonzero;fill:rgb(0%,0%,0%);fill-opacity:1;" d="M 14.292969 16.804688 L 12.597656 18.476562 C 12.238281 18.832031 11.726562 18.941406 11.269531 18.816406 C 12.042969 18.371094 12.617188 17.675781 12.90625 16.832031 C 13.140625 16.132812 13.640625 15.566406 14.308594 15.234375 L 14.484375 15.148438 C 14.8125 15.667969 14.75 16.355469 14.292969 16.804688 Z M 10.675781 16.582031 L 12.375 14.910156 C 12.640625 14.648438 12.984375 14.515625 13.335938 14.515625 C 13.457031 14.515625 13.582031 14.539062 13.703125 14.574219 C 12.929688 15.019531 12.351562 15.710938 12.066406 16.554688 C 11.832031 17.253906 11.332031 17.820312 10.664062 18.152344 L 10.488281 18.238281 C 10.160156 17.722656 10.222656 17.03125 10.675781 16.582031 Z M 11.75 14.292969 L 10.054688 15.96875 C 9.179688 16.828125 9.179688 18.230469 10.054688 19.09375 C 10.488281 19.527344 11.0625 19.742188 11.636719 19.742188 C 12.210938 19.742188 12.785156 19.527344 13.222656 19.09375 L 14.917969 17.421875 C 15.792969 16.558594 15.792969 15.15625 14.917969 14.292969 C 14.042969 13.429688 12.625 13.429688 11.75 14.292969 "/>
<path style=" stroke:none;fill-rule:nonzero;fill:rgb(0%,0%,0%);fill-opacity:1;" d="M 7.628906 12.773438 L 17.339844 12.773438 L 17.339844 20.613281 L 7.628906 20.613281 Z M 7.1875 21.484375 L 17.78125 21.484375 C 18.027344 21.484375 18.222656 21.289062 18.222656 21.046875 L 18.222656 12.339844 C 18.222656 12.097656 18.027344 11.902344 17.78125 11.902344 L 7.1875 11.902344 C 6.945312 11.902344 6.746094 12.097656 6.746094 12.339844 L 6.746094 21.046875 C 6.746094 21.289062 6.945312 21.484375 7.1875 21.484375 "/>
</g>
</svg>
