<?xml version="1.0" encoding="UTF-8"?>
<svg xmlns="http://www.w3.org/2000/svg" xmlns:xlink="http://www.w3.org/1999/xlink" width="30pt" height="30.000001pt" viewBox="0 0 30 30.000001" version="1.2">
<defs>
<clipPath id="clip1">
  <path d="M 15 12 L 28.355469 12 L 28.355469 26.128906 L 15 26.128906 Z M 15 12 "/>
</clipPath>
<clipPath id="clip2">
  <path d="M 5.128906 2.902344 L 21 2.902344 L 21 26.128906 L 5.128906 26.128906 Z M 5.128906 2.902344 "/>
</clipPath>
<clipPath id="clip3">
  <path d="M 5.128906 22 L 15 22 L 15 24 L 5.128906 24 Z M 5.128906 22 "/>
</clipPath>
</defs>
<g id="surface1">
<path style=" stroke:none;fill-rule:nonzero;fill:rgb(0%,0%,0%);fill-opacity:1;" d="M 24.484375 23.710938 C 19.222656 23.710938 19.160156 18.441406 19.160156 18.386719 C 19.160156 18.253906 19.207031 18.140625 19.304688 18.046875 C 19.398438 17.949219 19.511719 17.902344 19.644531 17.902344 C 24.90625 17.902344 24.96875 23.171875 24.96875 23.226562 C 24.96875 23.359375 24.921875 23.472656 24.824219 23.566406 C 24.730469 23.664062 24.617188 23.710938 24.484375 23.710938 Z M 20.167969 18.894531 C 20.3125 19.984375 20.964844 22.460938 23.960938 22.71875 C 23.816406 21.628906 23.164062 19.152344 20.167969 18.894531 Z M 20.167969 18.894531 "/>
<path style=" stroke:none;fill-rule:nonzero;fill:rgb(0%,0%,0%);fill-opacity:1;" d="M 21.320312 20.746094 L 22.003906 20.0625 L 24.824219 22.882812 L 24.140625 23.566406 Z M 21.320312 20.746094 "/>
<g clip-path="url(#clip1)" clip-rule="nonzero">
<path style=" stroke:none;fill-rule:nonzero;fill:rgb(0%,0%,0%);fill-opacity:1;" d="M 26.902344 26.128906 L 17.226562 26.128906 C 17.035156 26.128906 16.847656 26.09375 16.671875 26.019531 C 16.492188 25.945312 16.335938 25.839844 16.199219 25.703125 C 16.0625 25.566406 15.957031 25.410156 15.882812 25.234375 C 15.8125 25.054688 15.773438 24.871094 15.773438 24.675781 L 15.773438 16.933594 C 15.773438 16.566406 15.898438 16.242188 16.144531 15.96875 C 15.898438 15.691406 15.773438 15.371094 15.773438 15 L 15.773438 14.03125 C 15.773438 13.839844 15.8125 13.65625 15.882812 13.476562 C 15.957031 13.300781 16.0625 13.140625 16.199219 13.003906 C 16.335938 12.871094 16.492188 12.765625 16.671875 12.691406 C 16.847656 12.617188 17.035156 12.582031 17.226562 12.582031 L 26.902344 12.582031 C 27.097656 12.582031 27.28125 12.617188 27.457031 12.691406 C 27.636719 12.765625 27.792969 12.871094 27.929688 13.003906 C 28.066406 13.140625 28.171875 13.300781 28.246094 13.476562 C 28.316406 13.65625 28.355469 13.839844 28.355469 14.03125 L 28.355469 15 C 28.355469 15.371094 28.230469 15.691406 27.984375 15.96875 C 28.230469 16.242188 28.355469 16.566406 28.355469 16.933594 L 28.355469 24.675781 C 28.355469 24.871094 28.316406 25.054688 28.246094 25.234375 C 28.171875 25.410156 28.066406 25.566406 27.929688 25.703125 C 27.792969 25.839844 27.636719 25.945312 27.457031 26.019531 C 27.28125 26.09375 27.097656 26.128906 26.902344 26.128906 Z M 17.226562 16.453125 C 17.09375 16.453125 16.976562 16.5 16.882812 16.59375 C 16.789062 16.6875 16.742188 16.800781 16.742188 16.933594 L 16.742188 24.675781 C 16.742188 24.8125 16.789062 24.925781 16.882812 25.019531 C 16.976562 25.113281 17.09375 25.160156 17.226562 25.160156 L 26.902344 25.160156 C 27.035156 25.160156 27.152344 25.113281 27.246094 25.019531 C 27.339844 24.925781 27.386719 24.8125 27.386719 24.675781 L 27.386719 16.933594 C 27.386719 16.800781 27.339844 16.6875 27.246094 16.59375 C 27.152344 16.5 27.035156 16.453125 26.902344 16.453125 C 26.769531 16.453125 26.65625 16.40625 26.5625 16.308594 C 26.464844 16.214844 26.417969 16.101562 26.417969 15.96875 C 26.417969 15.835938 26.464844 15.71875 26.5625 15.625 C 26.65625 15.53125 26.769531 15.484375 26.902344 15.484375 C 27.035156 15.484375 27.152344 15.4375 27.246094 15.34375 C 27.339844 15.246094 27.386719 15.132812 27.386719 15 L 27.386719 14.03125 C 27.386719 13.898438 27.339844 13.785156 27.246094 13.691406 C 27.152344 13.59375 27.035156 13.546875 26.902344 13.546875 L 17.226562 13.546875 C 17.09375 13.546875 16.976562 13.59375 16.882812 13.691406 C 16.789062 13.785156 16.742188 13.898438 16.742188 14.03125 L 16.742188 15 C 16.742188 15.132812 16.789062 15.246094 16.882812 15.34375 C 16.976562 15.4375 17.09375 15.484375 17.226562 15.484375 C 17.359375 15.484375 17.472656 15.53125 17.566406 15.625 C 17.664062 15.71875 17.710938 15.835938 17.710938 15.96875 C 17.710938 16.101562 17.664062 16.214844 17.566406 16.308594 C 17.472656 16.40625 17.359375 16.453125 17.226562 16.453125 Z M 17.226562 16.453125 "/>
</g>
<path style=" stroke:none;fill-rule:nonzero;fill:rgb(0%,0%,0%);fill-opacity:1;" d="M 24 17.417969 C 23.867188 17.417969 23.753906 17.371094 23.65625 17.277344 L 22.691406 16.308594 C 22.59375 16.214844 22.546875 16.101562 22.546875 15.96875 L 22.546875 13.066406 C 22.546875 12.929688 22.59375 12.816406 22.691406 12.722656 C 22.785156 12.628906 22.898438 12.582031 23.03125 12.582031 L 24.96875 12.582031 C 25.101562 12.582031 25.214844 12.628906 25.308594 12.722656 C 25.40625 12.816406 25.453125 12.929688 25.453125 13.066406 L 25.453125 15.96875 C 25.453125 16.101562 25.40625 16.214844 25.308594 16.308594 L 24.34375 17.277344 C 24.246094 17.371094 24.132812 17.417969 24 17.417969 Z M 23.515625 15.765625 L 24 16.25 L 24.484375 15.765625 L 24.484375 13.546875 L 23.515625 13.546875 Z M 23.515625 15.765625 "/>
<path style=" stroke:none;fill-rule:nonzero;fill:rgb(0%,0%,0%);fill-opacity:1;" d="M 17.226562 15.484375 L 21.582031 15.484375 L 21.582031 16.453125 L 17.226562 16.453125 Z M 17.226562 15.484375 "/>
<path style=" stroke:none;fill-rule:nonzero;fill:rgb(0%,0%,0%);fill-opacity:1;" d="M 8.03125 5.804688 L 17.710938 5.804688 L 17.710938 6.773438 L 8.03125 6.773438 Z M 8.03125 5.804688 "/>
<g clip-path="url(#clip2)" clip-rule="nonzero">
<path style=" stroke:none;fill-rule:nonzero;fill:rgb(0%,0%,0%);fill-opacity:1;" d="M 14.804688 26.128906 L 6.582031 26.128906 C 6.386719 26.128906 6.203125 26.09375 6.023438 26.019531 C 5.847656 25.945312 5.691406 25.839844 5.554688 25.703125 C 5.417969 25.566406 5.3125 25.410156 5.238281 25.234375 C 5.164062 25.054688 5.128906 24.871094 5.128906 24.675781 L 5.128906 9.664062 C 5.128906 9.296875 5.1875 8.941406 5.304688 8.59375 L 6.070312 6.285156 C 6.089844 6.238281 6.097656 6.1875 6.097656 6.132812 L 6.097656 4.355469 C 6.097656 4.164062 6.132812 3.976562 6.207031 3.800781 C 6.28125 3.621094 6.386719 3.464844 6.523438 3.328125 C 6.65625 3.191406 6.816406 3.085938 6.992188 3.015625 C 7.171875 2.941406 7.355469 2.902344 7.546875 2.902344 L 18.195312 2.902344 C 18.386719 2.902344 18.570312 2.941406 18.75 3.015625 C 18.925781 3.085938 19.082031 3.191406 19.21875 3.328125 C 19.355469 3.464844 19.460938 3.621094 19.535156 3.800781 C 19.609375 3.976562 19.644531 4.164062 19.644531 4.355469 L 19.644531 6.132812 C 19.644531 6.1875 19.652344 6.238281 19.667969 6.285156 L 20.4375 8.59375 C 20.554688 8.941406 20.613281 9.296875 20.613281 9.664062 L 20.613281 11.613281 L 19.644531 11.613281 L 19.644531 9.664062 C 19.644531 9.402344 19.605469 9.148438 19.519531 8.898438 L 18.75 6.59375 C 18.703125 6.445312 18.675781 6.289062 18.675781 6.132812 L 18.675781 4.355469 C 18.675781 4.222656 18.628906 4.105469 18.535156 4.011719 C 18.441406 3.917969 18.328125 3.871094 18.195312 3.871094 L 7.546875 3.871094 C 7.414062 3.871094 7.300781 3.917969 7.207031 4.011719 C 7.113281 4.105469 7.066406 4.222656 7.066406 4.355469 L 7.066406 6.132812 C 7.0625 6.289062 7.039062 6.441406 6.988281 6.589844 L 6.222656 8.898438 C 6.136719 9.148438 6.097656 9.402344 6.097656 9.664062 L 6.097656 24.675781 C 6.097656 24.8125 6.144531 24.925781 6.238281 25.019531 C 6.332031 25.113281 6.445312 25.160156 6.582031 25.160156 L 14.804688 25.160156 Z M 14.804688 26.128906 "/>
</g>
<path style=" stroke:none;fill-rule:nonzero;fill:rgb(0%,0%,0%);fill-opacity:1;" d="M 12.871094 18.871094 C 9.808594 18.871094 9 16.339844 9 15 C 9 14.867188 9.046875 14.753906 9.140625 14.65625 C 9.234375 14.5625 9.351562 14.515625 9.484375 14.515625 C 12.546875 14.515625 13.355469 17.046875 13.355469 18.386719 C 13.355469 18.519531 13.308594 18.636719 13.214844 18.730469 C 13.117188 18.824219 13.003906 18.871094 12.871094 18.871094 Z M 10.015625 15.519531 C 10.046875 15.816406 10.128906 16.101562 10.253906 16.375 C 10.382812 16.644531 10.554688 16.886719 10.765625 17.101562 C 10.976562 17.316406 11.214844 17.488281 11.488281 17.617188 C 11.757812 17.75 12.039062 17.835938 12.339844 17.867188 C 12.308594 17.570312 12.226562 17.285156 12.097656 17.011719 C 11.972656 16.742188 11.800781 16.5 11.589844 16.285156 C 11.378906 16.070312 11.136719 15.898438 10.867188 15.769531 C 10.597656 15.636719 10.3125 15.554688 10.015625 15.519531 Z M 10.015625 15.519531 "/>
<path style=" stroke:none;fill-rule:nonzero;fill:rgb(0%,0%,0%);fill-opacity:1;" d="M 13.355469 15.484375 C 13.222656 15.484375 13.105469 15.4375 13.011719 15.34375 C 12.917969 15.246094 12.871094 15.132812 12.871094 15 C 12.871094 13.660156 13.679688 11.128906 16.742188 11.128906 C 16.875 11.128906 16.988281 11.175781 17.085938 11.269531 C 17.179688 11.367188 17.226562 11.480469 17.226562 11.613281 C 17.222656 11.800781 17.203125 11.988281 17.175781 12.171875 L 16.699219 12.097656 C 16.355469 12.078125 16.019531 12.121094 15.695312 12.230469 C 15.371094 12.339844 15.074219 12.503906 14.8125 12.726562 C 14.550781 12.949219 14.339844 13.210938 14.179688 13.515625 C 14.019531 13.816406 13.921875 14.140625 13.886719 14.480469 C 14.296875 14.433594 14.675781 14.300781 15.023438 14.082031 L 15.554688 14.890625 C 14.878906 15.308594 14.148438 15.507812 13.355469 15.484375 Z M 13.355469 15.484375 "/>
<g clip-path="url(#clip3)" clip-rule="nonzero">
<path style=" stroke:none;fill-rule:nonzero;fill:rgb(0%,0%,0%);fill-opacity:1;" d="M 5.613281 22.742188 L 14.804688 22.742188 L 14.804688 23.710938 L 5.613281 23.710938 Z M 5.613281 22.742188 "/>
</g>
</g>
</svg>
