<?xml version="1.0" encoding="UTF-8"?>
<svg xmlns="http://www.w3.org/2000/svg" xmlns:xlink="http://www.w3.org/1999/xlink" width="30pt" height="30.000001pt" viewBox="0 0 30 30.000001" version="1.2">
<defs>
<clipPath id="clip1">
  <path d="M 3.261719 7 L 26.253906 7 L 26.253906 24.453125 L 3.261719 24.453125 Z M 3.261719 7 "/>
</clipPath>
<clipPath id="clip2">
  <path d="M 19 5 L 26.253906 5 L 26.253906 13 L 19 13 Z M 19 5 "/>
</clipPath>
<clipPath id="clip3">
  <path d="M 18 2.902344 L 24 2.902344 L 24 9 L 18 9 Z M 18 2.902344 "/>
</clipPath>
</defs>
<g id="surface1">
<path style=" stroke:none;fill-rule:nonzero;fill:rgb(0%,0%,0%);fill-opacity:1;" d="M 7.933594 20.144531 C 7.734375 20.144531 7.574219 20.304688 7.574219 20.503906 L 7.574219 21.941406 C 7.574219 22.136719 7.734375 22.300781 7.933594 22.300781 C 8.128906 22.300781 8.292969 22.136719 8.292969 21.941406 L 8.292969 20.503906 C 8.292969 20.304688 8.128906 20.144531 7.933594 20.144531 Z M 7.933594 20.144531 "/>
<g clip-path="url(#clip1)" clip-rule="nonzero">
<path style=" stroke:none;fill-rule:nonzero;fill:rgb(0%,0%,0%);fill-opacity:1;" d="M 24.621094 11.65625 C 24.476562 11.519531 24.25 11.527344 24.113281 11.671875 C 23.980469 11.816406 23.988281 12.042969 24.132812 12.179688 L 24.976562 12.964844 L 18.839844 12.964844 L 13.914062 8.660156 L 17.320312 8.660156 C 17.515625 8.660156 17.675781 8.496094 17.675781 8.300781 C 17.675781 8.101562 17.515625 7.941406 17.320312 7.941406 C 8.789062 7.945312 9.28125 7.898438 9.132812 8.03125 L 7.695312 9.285156 C 7.582031 9.382812 7.542969 9.542969 7.597656 9.683594 C 7.648438 9.820312 7.78125 9.914062 7.933594 9.914062 C 8.167969 9.914062 8.164062 9.792969 9.367188 8.777344 L 14.160156 12.964844 L 4.578125 12.964844 L 5.910156 11.800781 C 6.058594 11.667969 6.074219 11.445312 5.945312 11.296875 C 5.8125 11.144531 5.589844 11.128906 5.4375 11.261719 C 3.320312 13.113281 3.265625 13.101562 3.265625 13.324219 L 3.265625 24.09375 C 3.265625 24.292969 3.425781 24.453125 3.625 24.453125 L 25.886719 24.453125 C 26.085938 24.453125 26.246094 24.292969 26.246094 24.09375 L 26.246094 13.324219 C 26.246094 13.105469 26.234375 13.160156 24.621094 11.65625 Z M 6.136719 23.734375 L 3.984375 23.734375 L 3.984375 22.300781 L 6.136719 22.300781 Z M 6.136719 21.582031 L 3.984375 21.582031 L 3.984375 20.144531 L 6.136719 20.144531 Z M 3.984375 19.425781 L 3.984375 17.992188 L 6.960938 17.992188 C 6.597656 18.398438 6.339844 18.894531 6.21875 19.425781 Z M 11.882812 23.734375 L 6.855469 23.734375 L 6.855469 20.144531 C 6.855469 18.757812 7.980469 17.632812 9.367188 17.632812 C 10.757812 17.632812 11.882812 18.757812 11.882812 20.144531 Z M 14.753906 23.734375 L 12.601562 23.734375 L 12.601562 22.300781 L 14.753906 22.300781 Z M 14.753906 21.582031 L 12.601562 21.582031 L 12.601562 20.144531 L 14.753906 20.144531 Z M 14.753906 19.425781 L 12.519531 19.425781 C 12.398438 18.894531 12.140625 18.398438 11.773438 17.992188 L 14.753906 17.992188 Z M 14.753906 17.273438 L 10.847656 17.273438 C 9.917969 16.792969 8.816406 16.792969 7.890625 17.273438 L 3.984375 17.273438 L 3.984375 15.824219 L 14.753906 15.824219 Z M 14.753906 15.105469 L 3.984375 15.105469 L 3.984375 13.683594 L 14.753906 13.683594 Z M 10.324219 8.660156 L 12.824219 8.660156 L 17.75 12.964844 L 15.25 12.964844 Z M 18.34375 23.734375 L 15.472656 23.734375 L 15.472656 13.683594 L 18.34375 13.683594 Z M 21.9375 23.734375 L 19.0625 23.734375 L 19.0625 13.683594 L 21.9375 13.683594 Z M 25.527344 23.734375 L 22.65625 23.734375 L 22.65625 13.683594 L 25.527344 13.683594 Z M 25.527344 23.734375 "/>
</g>
<path style=" stroke:none;fill-rule:nonzero;fill:rgb(0%,0%,0%);fill-opacity:1;" d="M 16.804688 17.886719 L 17.523438 17.167969 C 17.664062 17.027344 17.664062 16.800781 17.523438 16.660156 C 17.382812 16.519531 17.15625 16.519531 17.015625 16.660156 L 16.296875 17.378906 C 16.15625 17.519531 16.15625 17.746094 16.296875 17.886719 C 16.4375 18.027344 16.664062 18.027344 16.804688 17.886719 Z M 16.804688 17.886719 "/>
<path style=" stroke:none;fill-rule:nonzero;fill:rgb(0%,0%,0%);fill-opacity:1;" d="M 16.804688 19.679688 L 17.523438 18.964844 C 17.664062 18.824219 17.664062 18.597656 17.523438 18.457031 C 17.382812 18.316406 17.15625 18.316406 17.015625 18.457031 L 16.296875 19.171875 C 16.15625 19.3125 16.15625 19.542969 16.296875 19.679688 C 16.4375 19.820312 16.664062 19.820312 16.804688 19.679688 Z M 16.804688 19.679688 "/>
<path style=" stroke:none;fill-rule:nonzero;fill:rgb(0%,0%,0%);fill-opacity:1;" d="M 20.394531 17.886719 L 21.113281 17.167969 C 21.253906 17.027344 21.253906 16.800781 21.113281 16.660156 C 20.972656 16.519531 20.746094 16.519531 20.605469 16.660156 L 19.886719 17.378906 C 19.746094 17.519531 19.746094 17.746094 19.886719 17.886719 C 20.027344 18.027344 20.253906 18.027344 20.394531 17.886719 Z M 20.394531 17.886719 "/>
<path style=" stroke:none;fill-rule:nonzero;fill:rgb(0%,0%,0%);fill-opacity:1;" d="M 20.394531 19.679688 L 21.113281 18.964844 C 21.253906 18.824219 21.253906 18.597656 21.113281 18.457031 C 20.972656 18.316406 20.746094 18.316406 20.605469 18.457031 L 19.886719 19.171875 C 19.746094 19.3125 19.746094 19.542969 19.886719 19.679688 C 20.027344 19.820312 20.253906 19.820312 20.394531 19.679688 Z M 20.394531 19.679688 "/>
<path style=" stroke:none;fill-rule:nonzero;fill:rgb(0%,0%,0%);fill-opacity:1;" d="M 23.730469 17.992188 C 23.988281 17.992188 24.046875 17.785156 24.703125 17.167969 C 24.84375 17.027344 24.84375 16.800781 24.703125 16.660156 C 24.5625 16.519531 24.335938 16.519531 24.195312 16.660156 L 23.476562 17.378906 C 23.375 17.480469 23.34375 17.636719 23.402344 17.769531 C 23.457031 17.902344 23.585938 17.992188 23.730469 17.992188 Z M 23.730469 17.992188 "/>
<path style=" stroke:none;fill-rule:nonzero;fill:rgb(0%,0%,0%);fill-opacity:1;" d="M 23.730469 19.785156 C 23.988281 19.785156 24.046875 19.578125 24.703125 18.964844 C 24.84375 18.824219 24.84375 18.597656 24.703125 18.457031 C 24.5625 18.316406 24.335938 18.316406 24.195312 18.457031 L 23.476562 19.171875 C 23.375 19.277344 23.34375 19.429688 23.402344 19.566406 C 23.457031 19.699219 23.585938 19.785156 23.730469 19.785156 Z M 23.730469 19.785156 "/>
<g clip-path="url(#clip2)" clip-rule="nonzero">
<path style=" stroke:none;fill-rule:nonzero;fill:rgb(0%,0%,0%);fill-opacity:1;" d="M 20 10.804688 L 19.167969 11.636719 C 19.066406 11.738281 19.035156 11.890625 19.089844 12.027344 C 19.148438 12.160156 19.277344 12.246094 19.421875 12.25 C 19.679688 12.25 19.703125 12.070312 20.503906 11.316406 C 21.765625 12.238281 23.359375 11.539062 24.480469 10.417969 C 25.976562 8.921875 26.234375 5.625 26.246094 5.484375 C 26.253906 5.382812 26.214844 5.28125 26.140625 5.207031 C 26.066406 5.132812 25.964844 5.09375 25.859375 5.101562 C 25.722656 5.113281 22.421875 5.367188 20.925781 6.867188 C 19.402344 8.390625 19.351562 9.875 20 10.804688 Z M 25.480469 5.863281 C 25.363281 6.777344 24.988281 8.894531 23.972656 9.910156 C 22.933594 10.949219 21.792969 11.28125 21.019531 10.800781 L 23.984375 7.835938 C 24.125 7.695312 24.125 7.46875 23.984375 7.328125 C 23.84375 7.1875 23.617188 7.1875 23.476562 7.328125 L 20.519531 10.285156 C 20.074219 9.515625 20.410156 8.394531 21.433594 7.371094 C 22.449219 6.359375 24.570312 5.984375 25.480469 5.863281 Z M 25.480469 5.863281 "/>
</g>
<g clip-path="url(#clip3)" clip-rule="nonzero">
<path style=" stroke:none;fill-rule:nonzero;fill:rgb(0%,0%,0%);fill-opacity:1;" d="M 18.753906 8.609375 C 19.753906 8.609375 17.894531 7.058594 22.019531 3.820312 C 22.132812 4.054688 22.277344 4.382812 22.421875 4.761719 C 22.453125 4.851562 22.523438 4.925781 22.609375 4.964844 C 22.695312 5.003906 22.796875 5.007812 22.886719 4.972656 C 22.976562 4.941406 23.046875 4.871094 23.085938 4.785156 C 23.125 4.695312 23.128906 4.597656 23.09375 4.507812 C 22.914062 4.027344 22.703125 3.558594 22.46875 3.105469 C 22.417969 3.015625 22.332031 2.949219 22.234375 2.925781 C 22.132812 2.902344 22.027344 2.921875 21.945312 2.980469 C 21.828125 3.0625 19.046875 5.03125 18.550781 7.125 C 18.460938 7.492188 18.410156 7.863281 18.398438 8.238281 C 18.394531 8.335938 18.429688 8.429688 18.496094 8.5 C 18.566406 8.570312 18.660156 8.609375 18.753906 8.609375 Z M 18.753906 8.609375 "/>
</g>
<path style=" stroke:none;fill-rule:nonzero;fill:rgb(0%,0%,0%);fill-opacity:1;" d="M 7.214844 10.453125 C 7.214844 10.652344 7.054688 10.8125 6.855469 10.8125 C 6.65625 10.8125 6.496094 10.652344 6.496094 10.453125 C 6.496094 10.253906 6.65625 10.09375 6.855469 10.09375 C 7.054688 10.09375 7.214844 10.253906 7.214844 10.453125 Z M 7.214844 10.453125 "/>
</g>
</svg>
