<?xml version="1.0" encoding="UTF-8"?>
<svg xmlns="http://www.w3.org/2000/svg" xmlns:xlink="http://www.w3.org/1999/xlink" width="150pt" height="149.999998pt" viewBox="0 0 150 149.999998" version="1.2">
<defs>
<clipPath id="clip1">
  <path d="M 9 6.53125 L 143.203125 6.53125 L 143.203125 140.78125 L 9 140.78125 Z M 9 6.53125 "/>
</clipPath>
</defs>
<g id="surface1">
<g clip-path="url(#clip1)" clip-rule="nonzero">
<path style=" stroke:none;fill-rule:nonzero;fill:rgb(32.939148%,74.508667%,58.428955%);fill-opacity:1;" d="M 76.332031 6.789062 C 76.3125 6.789062 76.3125 6.789062 76.292969 6.789062 C 39.625 6.789062 9.425781 36.96875 9.425781 73.65625 C 9.425781 84.648438 12.160156 95.476562 17.34375 105.183594 L 9.464844 134.035156 C 8.945312 135.882812 9.464844 137.871094 10.851562 139.179688 C 11.878906 140.125 13.222656 140.605469 14.609375 140.523438 C 15.070312 140.605469 15.535156 140.605469 15.996094 140.523438 L 46.394531 132.046875 C 48.625 131.421875 50.171875 129.375 50.171875 127.082031 C 50.171875 124.25 47.863281 121.917969 45.03125 121.917969 C 44.566406 121.917969 44.105469 121.980469 43.664062 122.101562 L 21.902344 127.96875 L 27.832031 105.867188 C 28.191406 104.539062 27.992188 103.132812 27.308594 101.949219 C 22.34375 93.347656 19.734375 83.582031 19.734375 73.65625 C 19.734375 42.613281 45.269531 17.078125 76.3125 17.078125 C 107.355469 17.078125 132.894531 42.613281 132.894531 73.65625 C 132.894531 104.679688 107.355469 130.238281 76.332031 130.238281 C 73.160156 130.238281 70.003906 129.976562 66.871094 129.472656 C 64.097656 129.011719 61.425781 130.902344 60.964844 133.671875 C 60.480469 136.464844 62.390625 139.140625 65.183594 139.601562 C 68.839844 140.222656 72.535156 140.523438 76.253906 140.523438 C 112.941406 140.523438 143.121094 110.347656 143.121094 73.65625 C 143.121094 37.007812 112.984375 6.828125 76.332031 6.789062 "/>
</g>
<path style=" stroke:none;fill-rule:nonzero;fill:rgb(32.939148%,74.508667%,58.428955%);fill-opacity:1;" d="M 71.191406 49.023438 L 65.222656 40.785156 C 63.414062 38.292969 60.582031 36.707031 57.507812 36.464844 C 54.414062 36.246094 51.378906 37.371094 49.167969 39.558594 L 43 45.730469 C 40.207031 48.5625 38.71875 52.441406 38.882812 56.417969 C 38.882812 65.519531 45.894531 76.992188 59.457031 90.375 C 75.347656 105.804688 86.359375 110.949219 93.875 110.949219 C 97.730469 111.050781 101.46875 109.542969 104.160156 106.789062 L 110.332031 100.601562 C 112.398438 98.671875 113.585938 95.960938 113.585938 93.105469 C 113.585938 89.710938 111.898438 86.535156 109.105469 84.609375 L 101.027344 78.800781 C 98.292969 76.851562 94.820312 76.269531 91.605469 77.253906 L 83.949219 79.664062 C 83.464844 79.644531 83.003906 79.484375 82.601562 79.222656 C 78.042969 75.925781 73.960938 72.03125 70.527344 67.589844 C 70.488281 67.410156 70.488281 67.207031 70.527344 67.027344 C 71.191406 64.757812 72.316406 61.097656 73.097656 58.585938 C 74.105469 55.292969 73.398438 51.675781 71.191406 49.023438 Z M 77.820312 88.265625 C 80.574219 89.769531 83.808594 90.152344 86.820312 89.289062 L 94.757812 86.9375 L 103.035156 93.367188 L 96.910156 99.375 C 94.4375 101.785156 85.335938 101.082031 66.769531 82.859375 C 51.339844 67.890625 49.230469 59.714844 49.230469 56.21875 C 49.269531 55.03125 49.773438 53.90625 50.617188 53.082031 L 57.207031 46.953125 L 63.273438 55.453125 C 62.449219 57.964844 61.265625 61.722656 60.640625 63.933594 C 59.917969 66.304688 60 68.835938 60.902344 71.144531 C 65.34375 77.996094 71.171875 83.824219 78.042969 88.265625 L 77.820312 88.265625 "/>
</g>
</svg>
